<svg xmlns="http://www.w3.org/2000/svg" width="256" height="256" viewBox="0 0 256 256">
  <defs>
    <linearGradient id="tile" x1="0" y1="0" x2="0" y2="1">
      <stop offset="0" stop-color="#504945"/>
      <stop offset="1" stop-color="#3c3836"/>
    </linearGradient>
    <linearGradient id="bevel" x1=".517" y1="0" x2=".517" y2="1">
      <stop offset="0" stop-color="#ebdbb2"/>
      <stop offset="0.125" stop-color="#ebdbb2" stop-opacity="0.098"/>
      <stop offset="0.925" stop-color="#282828" stop-opacity="0.098"/>
      <stop offset="1" stop-color="#282828" stop-opacity="0.498"/>
    </linearGradient>
    <clipPath id="tileClip"><path d="M 165.439 11.577 C 239.495 11.577 250.078 22.134 250.078 96.12 L 250.078 155.371 C 250.078 229.358 239.495 239.915 165.439 239.915 L 90.069 239.915 C 16.014 239.915 5.43 229.358 5.43 155.371 L 5.43 96.12 C 5.43 22.134 16.014 11.577 90.069 11.577 L 165.439 11.577 Z"/></clipPath>
  </defs>
  <path d="M 165.439 11.577 C 239.495 11.577 250.078 22.134 250.078 96.12 L 250.078 155.371 C 250.078 229.358 239.495 239.915 165.439 239.915 L 90.069 239.915 C 16.014 239.915 5.43 229.358 5.43 155.371 L 5.43 96.12 C 5.43 22.134 16.014 11.577 90.069 11.577 L 165.439 11.577 Z" fill="url(#tile)"/>
  <g opacity="0.4"><path d="M 165.068 11.951 C 169.396 11.941 173.724 11.991 178.052 12.089 C 181.927 12.167 185.803 12.315 189.678 12.541 C 193.131 12.737 196.583 13.022 200.026 13.395 C 203.085 13.73 206.144 14.181 209.174 14.741 C 211.889 15.243 214.574 15.881 217.22 16.657 C 219.62 17.355 221.971 18.219 224.243 19.241 C 226.358 20.184 228.384 21.304 230.302 22.591 C 232.142 23.829 233.863 25.244 235.437 26.806 C 237.001 28.378 238.417 30.088 239.656 31.925 C 240.945 33.841 242.066 35.865 243.02 37.967 C 244.043 40.247 244.909 42.585 245.617 44.972 C 246.394 47.615 247.034 50.297 247.535 53.009 C 248.096 56.035 248.548 59.081 248.883 62.136 C 249.257 65.575 249.542 69.014 249.739 72.462 C 249.965 76.323 250.112 80.194 250.201 84.055 C 250.289 88.378 250.339 92.701 250.329 97.014 L 250.329 155.226 C 250.339 159.549 250.289 163.862 250.201 168.185 C 250.112 172.056 249.965 175.917 249.739 179.778 C 249.542 183.226 249.257 186.675 248.883 190.104 C 248.548 193.159 248.096 196.215 247.535 199.241 C 247.034 201.943 246.394 204.625 245.617 207.268 C 244.909 209.655 244.043 212.003 243.02 214.273 C 242.066 216.385 240.945 218.399 239.656 220.315 C 238.417 222.152 237.001 223.872 235.437 225.434 C 233.863 226.996 232.142 228.411 230.302 229.649 C 228.384 230.936 226.358 232.056 224.243 232.999 C 221.971 234.021 219.62 234.885 217.22 235.593 C 214.574 236.369 211.889 237.007 209.174 237.499 C 206.144 238.068 203.085 238.51 200.026 238.845 C 196.583 239.218 193.131 239.503 189.678 239.699 C 185.803 239.925 181.927 240.073 178.052 240.161 C 173.724 240.249 169.396 240.299 165.068 240.289 L 90.942 240.289 C 86.614 240.299 82.286 240.249 77.958 240.161 C 74.083 240.073 70.207 239.925 66.332 239.699 C 62.879 239.503 59.427 239.218 55.984 238.845 C 52.925 238.51 49.866 238.068 46.836 237.499 C 44.121 237.007 41.436 236.369 38.79 235.593 C 36.39 234.885 34.039 234.021 31.767 232.999 C 29.652 232.056 27.626 230.936 25.708 229.649 C 23.868 228.411 22.147 226.996 20.573 225.434 C 19.009 223.872 17.593 222.152 16.354 220.315 C 15.065 218.399 13.944 216.385 12.99 214.273 C 11.967 212.003 11.101 209.655 10.393 207.268 C 9.616 204.625 8.976 201.943 8.475 199.241 C 7.914 196.215 7.462 193.159 7.127 190.104 C 6.753 186.675 6.468 183.226 6.271 179.778 C 6.045 175.917 5.898 172.056 5.809 168.185 C 5.721 163.862 5.671 159.549 5.681 155.226 L 5.681 97.014 C 5.671 92.701 5.721 88.378 5.809 84.055 C 5.898 80.194 6.045 76.323 6.271 72.462 C 6.468 69.014 6.753 65.575 7.127 62.136 C 7.462 59.081 7.914 56.035 8.475 53.009 C 8.976 50.297 9.616 47.615 10.393 44.972 C 11.101 42.585 11.967 40.247 12.99 37.967 C 13.944 35.865 15.065 33.841 16.354 31.925 C 17.593 30.088 19.009 28.378 20.573 26.806 C 22.147 25.244 23.868 23.829 25.708 22.591 C 27.626 21.304 29.652 20.184 31.767 19.241 C 34.039 18.219 36.39 17.355 38.79 16.657 C 41.436 15.881 44.121 15.243 46.836 14.741 C 49.866 14.181 52.925 13.73 55.984 13.395 C 59.427 13.022 62.879 12.737 66.332 12.541 C 70.207 12.315 74.083 12.167 77.958 12.089 C 82.286 11.991 86.614 11.941 90.942 11.951 L 165.068 11.951 Z M 165.078 15.96 C 169.376 15.95 173.675 15.999 177.973 16.087 C 181.8 16.176 185.626 16.323 189.452 16.539 C 192.836 16.736 196.219 17.011 199.583 17.384 C 202.554 17.699 205.515 18.131 208.446 18.681 C 211.023 19.153 213.58 19.762 216.099 20.499 C 218.322 21.147 220.495 21.953 222.6 22.896 C 224.509 23.751 226.338 24.763 228.069 25.922 C 229.692 27.013 231.207 28.26 232.594 29.646 C 233.981 31.031 235.23 32.544 236.332 34.165 C 237.492 35.894 238.506 37.712 239.361 39.608 C 240.306 41.72 241.112 43.892 241.761 46.102 C 242.509 48.617 243.109 51.162 243.591 53.736 C 244.132 56.664 244.565 59.611 244.889 62.578 C 245.263 65.938 245.539 69.308 245.735 72.688 C 245.952 76.51 246.109 80.322 246.188 84.144 C 246.276 88.437 246.325 92.721 246.325 97.014 C 246.325 97.014 246.325 97.014 246.325 97.014 L 246.325 155.226 C 246.325 155.226 246.325 155.226 246.325 155.226 C 246.325 159.519 246.276 163.803 246.188 168.096 C 246.109 171.918 245.952 175.74 245.735 179.552 C 245.539 182.932 245.263 186.302 244.889 189.672 C 244.565 192.629 244.132 195.576 243.591 198.504 C 243.109 201.078 242.509 203.623 241.761 206.138 C 241.112 208.358 240.306 210.52 239.361 212.632 C 238.506 214.528 237.492 216.356 236.332 218.075 C 235.23 219.706 233.981 221.219 232.594 222.604 C 231.207 223.98 229.692 225.227 228.069 226.318 C 226.338 227.477 224.509 228.489 222.6 229.344 C 220.495 230.297 218.322 231.093 216.099 231.741 C 213.58 232.478 211.023 233.087 208.446 233.559 C 205.515 234.109 202.554 234.541 199.583 234.865 C 196.219 235.229 192.836 235.514 189.452 235.701 C 185.626 235.917 181.8 236.074 177.973 236.153 C 173.675 236.251 169.376 236.29 165.078 236.29 C 165.078 236.29 165.078 236.29 165.068 236.29 L 90.942 236.29 C 90.932 236.29 90.932 236.29 90.932 236.29 C 86.634 236.29 82.335 236.251 78.037 236.153 C 74.21 236.074 70.384 235.917 66.558 235.701 C 63.174 235.514 59.791 235.229 56.427 234.865 C 53.456 234.541 50.495 234.109 47.564 233.559 C 44.987 233.087 42.43 232.478 39.911 231.741 C 37.688 231.093 35.515 230.297 33.41 229.344 C 31.501 228.489 29.672 227.477 27.941 226.318 C 26.318 225.227 24.803 223.98 23.416 222.604 C 22.029 221.219 20.78 219.706 19.678 218.075 C 18.518 216.356 17.504 214.528 16.649 212.632 C 15.704 210.52 14.898 208.358 14.249 206.138 C 13.501 203.623 12.901 201.078 12.419 198.504 C 11.878 195.576 11.445 192.629 11.121 189.672 C 10.747 186.302 10.472 182.932 10.275 179.552 C 10.058 175.74 9.901 171.918 9.822 168.096 C 9.734 163.803 9.685 159.519 9.685 155.226 C 9.685 155.226 9.685 155.226 9.685 155.226 L 9.685 97.014 C 9.685 97.014 9.685 97.014 9.685 97.014 C 9.685 92.721 9.734 88.437 9.822 84.144 C 9.901 80.322 10.058 76.51 10.275 72.688 C 10.472 69.308 10.747 65.938 11.121 62.578 C 11.445 59.611 11.878 56.664 12.419 53.736 C 12.901 51.162 13.501 48.617 14.249 46.102 C 14.898 43.892 15.704 41.72 16.649 39.608 C 17.504 37.712 18.518 35.894 19.678 34.165 C 20.78 32.544 22.029 31.031 23.416 29.646 C 24.803 28.26 26.318 27.013 27.941 25.922 C 29.672 24.763 31.501 23.751 33.41 22.896 C 35.515 21.953 37.688 21.147 39.911 20.499 C 42.43 19.762 44.987 19.153 47.564 18.681 C 50.495 18.131 53.456 17.699 56.427 17.384 C 59.791 17.011 63.174 16.736 66.558 16.539 C 70.384 16.323 74.21 16.176 78.037 16.087 C 82.335 15.999 86.634 15.95 90.932 15.96 C 90.932 15.96 90.932 15.96 90.942 15.96 L 165.068 15.96 C 165.078 15.96 165.078 15.96 165.078 15.96 Z" fill-rule="evenodd" fill="url(#bevel)"/></g>
  <g clip-path="url(#tileClip)">
    <g transform="translate(33.50,108.50) scale(0.25)">

<path d="M0 0 C3.681 1.972 5.801 4.42 7.496 8.281 C8.333 11.754 8.624 14.98 8.629 18.547 C8.63 19.033 8.63 19.033 8.633 21.492 C8.629 22.495 8.625 23.498 8.621 24.531 C8.623 25.04 8.623 25.04 8.633 27.617 C8.632 28.584 8.63 29.551 8.629 30.547 C8.628 31.431 8.627 32.316 8.625 33.228 C8.496 35.281 8.496 35.281 7.496 36.281 C5.129 36.354 2.799 36.374 0.434 36.344 C-1.856 36.323 -4.145 36.303 -6.504 36.281 C-6.669 32.321 -6.669 32.321 -7.504 12.281 C-11.504 11.281 -11.504 11.281 -13.504 12.281 C-13.504 37.031 -13.504 61.781 -13.504 87.281 C-9.504 88.281 -9.504 88.281 -7.504 87.281 C-7.174 79.031 -6.844 70.781 -6.504 62.281 C-8.154 62.281 -9.804 62.281 -11.504 62.281 C-11.504 57.991 -11.504 53.701 -11.504 49.281 C-8.358 49.254 -5.212 49.234 -2.066 49.219 C-1.169 49.21 -0.271 49.202 0.654 49.193 C1.508 49.19 2.362 49.187 3.242 49.184 C4.033 49.178 4.824 49.173 5.638 49.168 C7.496 49.281 7.496 49.281 8.496 50.281 C8.589 51.785 8.614 53.294 8.61 54.801 C8.61 55.762 8.609 56.723 8.609 57.713 C8.604 58.758 8.599 59.802 8.594 60.879 C8.592 61.943 8.591 63.007 8.589 64.103 C8.584 67.517 8.571 70.93 8.559 74.344 C8.554 76.652 8.549 78.96 8.545 81.268 C8.534 86.939 8.517 92.61 8.496 98.281 C5.856 98.281 3.216 98.281 0.496 98.281 C0.166 97.291 -0.164 96.301 -0.504 95.281 C-0.882 95.642 -1.259 96.003 -1.648 96.375 C-6.186 100.201 -9.878 101.066 -15.781 100.758 C-20.076 100.006 -23.588 98.582 -26.504 95.281 C-30.593 87.353 -29.94 79.075 -29.902 70.375 C-29.904 68.724 -29.907 67.073 -29.911 65.422 C-29.915 61.973 -29.909 58.523 -29.895 55.074 C-29.878 50.669 -29.888 46.265 -29.906 41.86 C-29.917 38.454 -29.913 35.048 -29.905 31.642 C-29.903 30.019 -29.906 28.396 -29.913 26.772 C-29.967 10.852 -29.967 10.852 -26.504 4.281 C-19.873 -2.184 -8.695 -2.496 0 0 Z " fill="#fabd2f" transform="translate(279.50390625,0.71875)"/>
<path d="M0 0 C3.468 2.136 4.929 4.491 6.25 8.375 C7.44 13.811 7.399 19.153 7.375 24.688 C7.377 25.147 7.377 25.147 7.387 27.471 C7.385 28.343 7.384 29.215 7.383 30.113 C7.382 30.908 7.381 31.702 7.379 32.521 C7.25 34.375 7.25 34.375 6.25 35.375 C3.883 35.448 1.553 35.467 -0.812 35.438 C-3.102 35.417 -5.391 35.396 -7.75 35.375 C-7.915 31.415 -7.915 31.415 -8.75 11.375 C-12.75 10.375 -12.75 10.375 -14.75 11.375 C-16.736 17.334 -16.853 24.882 -14.949 30.91 C-12.088 36.328 -7.956 40.931 -4.035 45.605 C-1.865 48.211 0.193 50.881 2.188 53.625 C2.733 54.373 3.278 55.12 3.84 55.891 C7.236 61.874 7.568 67.593 7.5 74.312 C7.504 74.692 7.504 74.692 7.523 76.615 C7.502 82.91 6.871 88.77 3.5 94.188 C-1.217 98.773 -5.748 99.94 -12.125 99.875 C-12.455 99.872 -12.455 99.872 -14.122 99.855 C-18.793 99.68 -22.261 98.828 -26.234 96.25 C-31.754 89.422 -31.119 81.224 -30.938 72.875 C-30.922 71.659 -30.909 70.443 -30.896 69.227 C-30.861 66.276 -30.808 63.325 -30.75 60.375 C-26.13 60.375 -21.51 60.375 -16.75 60.375 C-16.689 62.001 -16.629 63.626 -16.566 65.301 C-16.482 67.43 -16.397 69.559 -16.312 71.688 C-16.273 72.759 -16.234 73.831 -16.193 74.936 C-16.172 75.45 -16.172 75.45 -16.066 78.051 C-16.03 78.999 -15.993 79.947 -15.955 80.923 C-15.75 83.375 -15.75 83.375 -14.75 86.375 C-11.806 87.553 -10.85 87.408 -7.75 86.375 C-7.714 69.799 -10.039 61.055 -21.633 48.719 C-29.286 40.246 -31.102 32.033 -31.062 20.875 C-31.071 20.419 -31.071 20.419 -31.111 18.113 C-31.115 12.419 -30.495 8.393 -27.75 3.375 C-20.946 -3.089 -8.582 -3.866 0 0 Z " fill="#fabd2f" transform="translate(487.75,1.625)"/>
<path d="M0 0 C0.652 -0.021 1.303 -0.041 1.975 -0.062 C6.706 -0.1 9.641 0.772 13.688 3.25 C18.846 8.552 19.99 14.193 19.962 21.398 C19.967 22.086 19.972 22.775 19.978 23.485 C19.991 25.746 19.991 28.008 19.988 30.27 C19.992 31.854 19.997 33.438 20.001 35.022 C20.009 38.338 20.008 41.654 20.003 44.97 C19.997 49.2 20.014 53.429 20.038 57.659 C20.052 60.93 20.053 64.201 20.05 67.473 C20.051 69.031 20.056 70.589 20.066 72.148 C20.175 91.296 20.175 91.296 15.254 96.875 C10.678 100.891 6.206 101.808 0.312 101.75 C-0.017 101.748 -0.017 101.748 -1.685 101.737 C-7.152 101.546 -11.425 100.308 -15.312 96.25 C-18.56 91.899 -18.744 88.542 -18.701 83.326 C-18.706 82.543 -18.711 81.761 -18.717 80.954 C-18.73 78.376 -18.721 75.797 -18.711 73.219 C-18.713 71.422 -18.716 69.625 -18.72 67.828 C-18.724 64.065 -18.718 60.303 -18.704 56.541 C-18.687 51.722 -18.696 46.904 -18.714 42.085 C-18.725 38.375 -18.722 34.666 -18.714 30.956 C-18.712 29.18 -18.714 27.403 -18.721 25.627 C-18.729 23.142 -18.717 20.658 -18.701 18.174 C-18.704 17.808 -18.704 17.808 -18.719 15.957 C-18.665 11.564 -18.059 8.861 -15.312 5.25 C-10.335 0.771 -6.523 0.051 0 0 Z M-3.312 12.25 C-4.596 15.687 -4.46 19.247 -4.458 22.867 C-4.461 23.523 -4.464 24.179 -4.468 24.854 C-4.477 27.016 -4.479 29.178 -4.48 31.34 C-4.484 32.847 -4.487 34.354 -4.491 35.86 C-4.497 39.017 -4.498 42.173 -4.498 45.33 C-4.498 49.369 -4.511 53.409 -4.529 57.448 C-4.54 60.56 -4.542 63.671 -4.541 66.783 C-4.542 68.272 -4.547 69.761 -4.555 71.25 C-4.564 73.335 -4.561 75.419 -4.555 77.504 C-4.561 78.115 -4.567 78.727 -4.572 79.357 C-4.545 83.064 -4.103 85.979 -2.312 89.25 C0.688 90.25 0.688 90.25 2.312 89.5 C3.688 88.25 3.688 88.25 4.688 85.25 C4.783 83.036 4.824 80.853 4.817 78.639 C4.819 77.972 4.82 77.305 4.822 76.618 C4.827 74.413 4.824 72.209 4.82 70.004 C4.821 68.471 4.822 66.938 4.823 65.405 C4.825 62.191 4.823 58.977 4.818 55.763 C4.812 51.646 4.815 47.53 4.821 43.413 C4.825 40.246 4.824 37.08 4.821 33.913 C4.821 32.395 4.821 30.878 4.824 29.36 C4.826 27.237 4.822 25.114 4.817 22.99 C4.819 22.364 4.821 21.738 4.823 21.093 C4.808 17.994 4.612 15.217 3.688 12.25 C-1.062 11.125 -1.062 11.125 -3.312 12.25 Z " fill="#fabd2f" transform="translate(522.3125,-0.25)"/>
<path d="M0 0 C6.522 5.083 9.124 12.252 10.5 20.188 C11.257 32.308 11.568 44.636 7.5 56.188 C7.233 57.116 6.966 58.044 6.691 59 C4.245 67.177 0.489 74.551 -3.422 82.097 C-5.212 85.568 -6.947 89.066 -8.688 92.562 C-10.43 96.061 -12.173 99.557 -13.973 103.027 C-18.056 110.932 -21.227 118.709 -22.613 127.539 C-22.783 128.602 -22.952 129.665 -23.126 130.76 C-23.25 131.561 -23.373 132.362 -23.5 133.188 C-22.541 133.177 -21.582 133.167 -20.594 133.156 C-17.042 133.12 -13.49 133.097 -9.938 133.078 C-8.4 133.068 -6.861 133.054 -5.323 133.037 C-3.114 133.012 -0.905 133.001 1.305 132.992 C1.994 132.982 2.684 132.972 3.395 132.961 C5.098 132.961 6.801 133.066 8.5 133.188 C10.5 135.188 10.5 135.188 10.743 136.867 C10.739 137.521 10.735 138.174 10.73 138.848 C10.729 139.559 10.727 140.269 10.725 141.002 C10.718 141.373 10.718 141.373 10.688 143.25 C10.687 143.996 10.686 144.741 10.686 145.51 C10.64 151.047 10.64 151.047 9.5 152.188 C7.695 152.286 5.886 152.315 4.078 152.317 C3.514 152.319 2.95 152.32 2.368 152.322 C0.495 152.327 -1.377 152.324 -3.25 152.32 C-4.547 152.321 -5.843 152.322 -7.14 152.323 C-9.86 152.325 -12.58 152.323 -15.301 152.318 C-18.795 152.312 -22.289 152.315 -25.783 152.321 C-28.461 152.325 -31.139 152.324 -33.818 152.321 C-35.106 152.321 -36.395 152.321 -37.683 152.324 C-39.482 152.326 -41.28 152.322 -43.078 152.317 C-44.103 152.316 -45.128 152.315 -46.185 152.314 C-48.5 152.188 -48.5 152.188 -49.5 151.188 C-50.92 138.35 -47.986 123.179 -43.5 111.188 C-43.21 110.378 -42.92 109.568 -42.621 108.734 C-39.757 101.335 -36.094 94.344 -32.438 87.312 C-32.178 86.813 -32.178 86.813 -30.865 84.284 C-26.678 76.321 -26.678 76.321 -24.32 72.887 C-22.375 70.002 -20.866 67.035 -19.438 63.875 C-19.195 63.357 -18.952 62.84 -18.701 62.307 C-17.926 60.615 -17.209 58.908 -16.5 57.188 C-16.223 56.56 -15.946 55.933 -15.66 55.287 C-13.07 48.725 -13.074 42.226 -13.164 35.283 C-13.188 33.295 -13.184 31.308 -13.178 29.32 C-13.224 18.751 -13.224 18.751 -15.5 16.188 C-18.183 16.238 -20.025 16.295 -22.5 17.188 C-26.805 23.762 -25.833 31.574 -25.688 39.125 C-25.672 40.49 -25.659 41.855 -25.646 43.221 C-25.614 46.543 -25.562 49.865 -25.5 53.188 C-28.289 54.117 -29.996 54.316 -32.879 54.32 C-33.717 54.322 -34.556 54.323 -35.42 54.324 C-36.292 54.32 -37.164 54.316 -38.062 54.312 C-38.5 54.314 -38.5 54.314 -40.717 54.324 C-41.554 54.323 -42.391 54.322 -43.254 54.32 C-44.02 54.319 -44.787 54.318 -45.576 54.317 C-47.5 54.188 -47.5 54.188 -49.5 53.188 C-50.359 14.422 -50.359 14.422 -42.5 5.188 C-32.305 -4.471 -12.328 -7.085 0 0 Z " fill="#fabd2f" transform="translate(745.5,2.8125)"/>
<path d="M0 0 C6.93 0 13.86 0 21 0 C22.803 1.803 22.451 4.576 22.684 7.02 C22.744 7.633 22.804 8.247 22.867 8.88 C23.061 10.857 23.25 12.835 23.438 14.812 C24.223 23.091 25.129 31.269 26.57 39.466 C27.332 43.957 27.642 48.461 28 53 C28.055 52.41 28.111 51.82 28.168 51.212 C28.421 48.537 28.679 45.862 28.938 43.188 C29.025 42.259 29.112 41.33 29.201 40.373 C29.288 39.48 29.375 38.588 29.465 37.668 C29.543 36.846 29.622 36.024 29.703 35.177 C30 33 30 33 31 30 C31.204 28.227 31.365 26.448 31.5 24.668 C31.582 23.622 31.665 22.576 31.75 21.498 C31.832 20.406 31.915 19.313 32 18.188 C32.164 16.035 32.331 13.883 32.5 11.73 C32.572 10.776 32.644 9.821 32.719 8.837 C33.014 5.861 33.478 2.944 34 0 C37.479 -0.029 40.958 -0.047 44.438 -0.062 C44.934 -0.067 44.934 -0.067 47.447 -0.088 C47.919 -0.09 47.919 -0.09 50.309 -0.098 C50.746 -0.1 50.746 -0.1 52.959 -0.114 C55 0 55 0 56 1 C56.123 2.638 56.123 2.638 56.12 4.803 C56.122 5.62 56.123 6.438 56.124 7.28 C56.123 7.732 56.123 7.732 56.114 10.018 C56.114 10.964 56.114 11.91 56.114 12.885 C56.113 16.029 56.105 19.173 56.098 22.316 C56.096 24.49 56.094 26.663 56.093 28.836 C56.09 33.982 56.082 39.128 56.072 44.274 C56.06 50.706 56.054 57.137 56.049 63.568 C56.038 75.046 56.021 86.523 56 98 C51.71 98 47.42 98 43 98 C42.67 75.56 42.34 53.12 42 30 C41.546 35.383 41.093 40.766 40.625 46.312 C36.418 95.582 36.418 95.582 34 98 C31.799 98.073 29.637 98.092 27.438 98.062 C26.301 98.051 25.164 98.04 23.992 98.029 C23.005 98.019 22.017 98.01 21 98 C18.647 83.685 17.086 69.39 15.875 54.938 C15.623 51.964 15.369 48.991 15.11 46.018 C14.952 44.191 14.797 42.363 14.646 40.535 C14.576 39.719 14.506 38.903 14.433 38.062 C14.373 37.348 14.314 36.633 14.252 35.897 C14 34 14 34 13 31 C13 53.11 13 75.22 13 98 C8.71 98 4.42 98 0 98 C0 65.66 0 33.32 0 0 Z " fill="#fabd2f" transform="translate(0,1)"/>
<path d="M0 0 C10.23 0 20.46 0 31 0 C32 1 32 1 32.133 3.688 C32.13 4.781 32.128 5.874 32.125 7 C32.126 7.547 32.126 7.547 32.133 10.312 C32 13 32 13 31 14 C29.326 14.114 29.326 14.114 27.184 14.098 C26.496 14.095 25.808 14.093 25.099 14.09 C24.221 14.081 23.343 14.072 22.438 14.062 C19.653 14.042 16.869 14.021 14 14 C14 21.92 14 29.84 14 38 C19.61 38 25.22 38 31 38 C31.021 40.124 31.041 42.249 31.062 44.438 C31.072 45.107 31.081 45.777 31.09 46.467 C31.097 47.978 31.05 49.489 31 51 C30.67 51.33 30.34 51.66 30 52 C24.72 52 19.44 52 14 52 C14 62.89 14 73.78 14 85 C22.937 84.938 22.937 84.938 25.758 84.91 C26.486 84.907 27.214 84.905 27.965 84.902 C28.714 84.897 29.463 84.892 30.234 84.886 C32 85 32 85 33 86 C33 89.96 33 93.92 33 98 C22.11 98 11.22 98 0 98 C0 65.66 0 33.32 0 0 Z " fill="#fabd2f" transform="translate(66,1)"/>
<path d="M0 0 C0.334 0.001 0.334 0.001 2.023 0.004 C2.78 0.001 3.538 -0.002 4.318 -0.005 C5.136 0.002 5.954 0.009 6.796 0.017 C7.634 0.017 8.473 0.018 9.336 0.018 C11.109 0.021 12.882 0.029 14.655 0.041 C17.379 0.06 20.102 0.062 22.826 0.062 C24.545 0.067 26.264 0.072 27.984 0.079 C28.804 0.08 29.623 0.081 30.468 0.083 C31.222 0.089 31.976 0.095 32.754 0.102 C33.42 0.106 34.087 0.11 34.774 0.114 C36.324 0.247 36.324 0.247 37.324 1.247 C37.422 3.245 37.453 5.247 37.449 7.247 C37.45 7.794 37.45 7.794 37.456 10.56 C37.324 13.247 37.324 13.247 36.324 14.247 C32.364 14.247 28.404 14.247 24.324 14.247 C24.324 41.967 24.324 69.687 24.324 98.247 C19.704 98.247 15.084 98.247 10.324 98.247 C10.324 70.527 10.324 42.807 10.324 14.247 C6.364 14.247 2.404 14.247 -1.676 14.247 C-3.766 11.113 -3.95 10.273 -3.926 6.685 C-3.932 5.9 -3.937 5.115 -3.942 4.306 C-3.598 1.641 -2.748 0.405 0 0 Z " fill="#fabd2f" transform="translate(106.67640686035156,0.7527618408203125)"/>
<path d="M0 0 C3.479 -0.029 6.958 -0.047 10.438 -0.062 C10.934 -0.067 10.934 -0.067 13.447 -0.088 C14.392 -0.091 15.336 -0.094 16.309 -0.098 C16.746 -0.1 16.746 -0.1 18.959 -0.114 C21 0 21 0 22 1 C22.358 3.584 22.666 6.156 22.938 8.75 C23.474 13.794 24.119 18.791 24.941 23.797 C26.522 33.881 27.315 44.056 28.25 54.216 C29.123 63.649 30.049 73.012 31.585 82.363 C32.402 87.554 32.654 92.756 33 98 C28.05 98 23.1 98 18 98 C16.76 95.519 16.728 93.578 16.535 90.809 C16.496 90.295 16.496 90.295 16.299 87.697 C16.141 85.52 15.987 83.343 15.838 81.166 C15.759 80.141 15.679 79.115 15.598 78.059 C15.531 77.113 15.464 76.167 15.395 75.193 C15.264 74.469 15.134 73.746 15 73 C12.713 71.856 11.407 71.897 8.875 71.938 C8.151 71.947 7.426 71.956 6.68 71.965 C6.125 71.976 5.571 71.988 5 72 C4.975 72.503 4.95 73.007 4.924 73.525 C4.807 75.85 4.685 78.175 4.562 80.5 C4.523 81.291 4.484 82.083 4.443 82.898 C4.173 87.974 3.687 92.964 3 98 C-1.62 98 -6.24 98 -11 98 C-10.883 95.624 -10.756 93.25 -10.625 90.875 C-10.594 90.229 -10.563 89.583 -10.531 88.918 C-10.271 84.368 -9.727 79.892 -9.055 75.387 C-7.849 67.294 -7.079 59.174 -6.323 51.029 C-5.602 43.323 -4.688 35.711 -3.459 28.065 C-2.756 23.372 -2.338 18.664 -1.938 13.938 C-1.783 12.134 -1.625 10.33 -1.465 8.527 C-1.399 7.751 -1.333 6.975 -1.265 6.176 C-1.006 4.05 -0.566 2.063 0 0 Z M10 19 C9.945 19.671 9.889 20.341 9.832 21.032 C9.579 24.084 9.321 27.136 9.062 30.188 C8.975 31.243 8.888 32.298 8.799 33.385 C8.712 34.406 8.625 35.428 8.535 36.48 C8.457 37.418 8.378 38.355 8.297 39.321 C8.008 41.926 7.517 44.432 7 47 C6.934 49.103 6.914 51.208 6.938 53.312 C6.947 54.381 6.956 55.45 6.965 56.551 C6.976 57.359 6.988 58.167 7 59 C9.31 59 11.62 59 14 59 C14.027 57.438 14.047 55.875 14.062 54.312 C14.074 53.442 14.086 52.572 14.098 51.676 C14 49 14 49 13.527 46.705 C12.963 43.809 12.691 40.984 12.465 38.043 C12.378 36.931 12.291 35.819 12.201 34.674 C12.114 33.523 12.027 32.373 11.938 31.188 C11.846 30.006 11.754 28.824 11.662 27.643 C11.439 24.762 11.218 21.881 11 19 C10.67 19 10.34 19 10 19 Z " fill="#fabd2f" transform="translate(152,1)"/>
<path d="M0 0 C0.607 0.004 1.214 0.008 1.84 0.012 C2.447 0.008 3.054 0.004 3.68 0 C8.213 0.01 8.213 0.01 9.34 1.137 C9.435 3.754 9.465 6.344 9.453 8.961 C9.454 9.781 9.454 10.6 9.454 11.444 C9.453 14.166 9.445 16.888 9.438 19.609 C9.436 21.491 9.434 23.373 9.433 25.255 C9.429 30.218 9.42 35.181 9.409 40.145 C9.398 45.205 9.394 50.266 9.389 55.326 C9.378 65.263 9.361 75.2 9.34 85.137 C9.595 85.134 9.595 85.134 10.885 85.121 C13.182 85.1 15.48 85.087 17.777 85.074 C18.58 85.066 19.382 85.057 20.209 85.049 C20.591 85.047 20.591 85.047 22.523 85.039 C23.23 85.034 23.937 85.029 24.666 85.023 C26.34 85.137 26.34 85.137 27.34 86.137 C27.34 90.097 27.34 94.057 27.34 98.137 C16.45 98.137 5.56 98.137 -5.66 98.137 C-5.683 85.507 -5.701 72.877 -5.712 60.247 C-5.717 54.383 -5.724 48.519 -5.736 42.655 C-5.746 37.001 -5.752 31.347 -5.755 25.693 C-5.757 23.531 -5.761 21.369 -5.766 19.206 C-5.773 16.189 -5.774 13.172 -5.774 10.155 C-5.777 9.251 -5.781 8.348 -5.785 7.417 C-5.783 6.599 -5.782 5.782 -5.78 4.939 C-5.781 4.225 -5.782 3.511 -5.783 2.775 C-5.515 -0.79 -2.989 0.007 0 0 Z " fill="#fabd2f" transform="translate(197.66015625,0.86328125)"/>
<path d="M0 0 C10.56 0 21.12 0 32 0 C32 4.62 32 9.24 32 14 C26.39 14 20.78 14 15 14 C15 21.92 15 29.84 15 38 C22.938 37.937 22.938 37.937 25.441 37.91 C26.088 37.907 26.736 37.905 27.402 37.902 C28.067 37.897 28.732 37.892 29.418 37.886 C31 38 31 38 32 39 C32.072 41.02 32.084 43.042 32.062 45.062 C32.053 46.167 32.044 47.272 32.035 48.41 C32.024 49.265 32.012 50.119 32 51 C28 52 28 52 16 52 C15.67 62.89 15.34 73.78 15 85 C20.61 85 26.22 85 32 85 C32 89.29 32 93.58 32 98 C21.44 98 10.88 98 0 98 C0 65.66 0 33.32 0 0 Z " fill="#fabd2f" transform="translate(298,1)"/>
<path d="M0 0 C0.875 0.005 1.749 0.01 2.65 0.016 C3.594 0.019 4.539 0.022 5.511 0.026 C6.505 0.034 7.498 0.042 8.521 0.051 C9.518 0.056 10.515 0.06 11.543 0.065 C14.015 0.077 16.487 0.093 18.959 0.114 C21.752 14.093 23.194 28.117 24.521 42.301 C24.935 46.67 25.353 51.038 25.775 55.406 C25.875 56.445 25.975 57.483 26.078 58.552 C26.728 65.162 27.559 71.712 28.559 78.276 C29.131 82.34 29.401 86.391 29.584 90.489 C29.622 91.236 29.661 91.984 29.701 92.754 C29.793 94.54 29.877 96.327 29.959 98.114 C25.009 98.114 20.059 98.114 14.959 98.114 C14.62 95.281 14.287 92.447 13.959 89.614 C13.863 88.822 13.768 88.031 13.67 87.215 C13.088 82.143 12.865 77.219 12.959 72.114 C9.989 72.114 7.019 72.114 3.959 72.114 C2.824 74.384 2.686 76.02 2.459 78.543 C2.376 79.421 2.294 80.299 2.209 81.203 C2.126 82.122 2.044 83.042 1.959 83.989 C1.795 85.799 1.628 87.609 1.459 89.418 C1.423 89.82 1.423 89.82 1.24 91.855 C0.959 94.114 0.959 94.114 -0.041 98.114 C-4.661 98.114 -9.281 98.114 -14.041 98.114 C-13.603 92.048 -13.065 86.158 -12.096 80.156 C-10.919 72.668 -10.214 65.162 -9.541 57.614 C-8.787 49.149 -7.888 40.785 -6.532 32.391 C-5.541 25.77 -4.946 19.099 -4.289 12.438 C-4.104 10.584 -3.915 8.732 -3.725 6.879 C-3.617 5.794 -3.509 4.709 -3.398 3.591 C-2.904 0.162 -2.904 0.162 0 0 Z M6.959 20.114 C6.903 20.941 6.848 21.768 6.791 22.62 C6.583 25.699 6.372 28.778 6.159 31.857 C6.068 33.187 5.978 34.518 5.889 35.849 C5.76 37.765 5.628 39.682 5.494 41.598 C5.415 42.75 5.337 43.902 5.256 45.089 C5.013 47.559 4.615 49.734 3.959 52.114 C3.895 53.362 3.872 54.614 3.896 55.864 C3.917 56.936 3.937 58.009 3.959 59.114 C6.269 59.114 8.579 59.114 10.959 59.114 C10.988 56.384 11.006 53.655 11.021 50.926 C11.03 50.157 11.038 49.388 11.047 48.596 C11.064 44.593 10.792 41.038 9.959 37.114 C9.69 33.63 9.567 30.136 9.441 26.645 C9.35 24.796 9.162 22.953 8.959 21.114 C8.299 20.784 7.639 20.454 6.959 20.114 Z " fill="#fabd2f" transform="translate(351.041259765625,0.886474609375)"/>
<path d="M0 0 C1.042 -0.012 2.084 -0.024 3.158 -0.037 C10.44 -0.051 15.963 0.102 21.625 5.125 C21.917 5.377 21.917 5.377 23.395 6.652 C27.151 10.719 26.036 17.079 26.053 22.248 C26.062 24.05 26.093 25.851 26.125 27.652 C26.128 28.224 26.128 28.224 26.141 31.117 C26.145 31.639 26.145 31.639 26.169 34.281 C25.759 37.62 24.77 39.478 22.812 42.188 C20.988 43.551 20.988 43.551 19.125 44.5 C18.502 44.826 17.88 45.152 17.238 45.488 C17.003 45.604 17.003 45.604 15.812 46.188 C16.277 46.394 16.277 46.394 18.625 47.438 C21.527 48.889 23.129 50.353 24.812 53.188 C25.87 56.359 25.999 58.779 26.094 62.113 C26.103 62.403 26.103 62.403 26.149 63.872 C26.187 65.109 26.224 66.347 26.258 67.585 C26.348 70.766 26.453 73.948 26.559 77.129 C26.579 77.748 26.6 78.366 26.621 79.004 C26.841 85.419 27.28 91.792 27.812 98.188 C22.863 98.188 17.913 98.188 12.812 98.188 C11 88.981 10.588 80.463 10.75 71.125 C10.778 69.168 10.802 67.211 10.821 65.254 C10.839 63.502 10.866 61.751 10.894 60 C10.812 57.188 10.812 57.188 9.812 54.188 C8.658 54.023 8.658 54.023 2.812 53.188 C2.812 68.037 2.812 82.888 2.812 98.188 C-2.137 98.188 -7.087 98.188 -12.188 98.188 C-12.211 85.558 -12.228 72.928 -12.239 60.298 C-12.245 54.434 -12.252 48.57 -12.263 42.706 C-12.274 37.052 -12.28 31.398 -12.282 25.744 C-12.284 23.582 -12.288 21.419 -12.293 19.257 C-12.3 16.24 -12.301 13.223 -12.301 10.205 C-12.305 9.302 -12.308 8.398 -12.312 7.468 C-12.311 6.65 -12.309 5.833 -12.308 4.99 C-12.309 4.276 -12.31 3.561 -12.311 2.825 C-11.953 -1.935 -3.506 0.002 0 0 Z M2.812 13.188 C2.812 22.428 2.812 31.668 2.812 41.188 C8.812 41.188 8.812 41.188 10.681 39.524 C12.05 36.697 12.093 34.929 11.922 31.801 C11.897 31.291 11.897 31.291 11.77 28.709 C11.701 27.65 11.633 26.591 11.562 25.5 C11.51 24.429 11.457 23.359 11.402 22.256 C10.971 14.346 10.971 14.346 9.812 13.188 C7.502 13.188 5.192 13.188 2.812 13.188 Z " fill="#fabd2f" transform="translate(400.1875,0.8125)"/>
<path d="M0 0 C4.62 0 9.24 0 14 0 C14 28.05 14 56.1 14 85 C19.94 85 25.88 85 32 85 C32 89.29 32 93.58 32 98 C21.11 98 10.22 98 -1 98 C-1.023 85.37 -1.041 72.74 -1.052 60.11 C-1.057 54.246 -1.064 48.382 -1.075 42.518 C-1.086 36.864 -1.092 31.21 -1.095 25.557 C-1.097 23.394 -1.1 21.232 -1.106 19.07 C-1.113 16.052 -1.114 13.035 -1.114 10.018 C-1.117 9.114 -1.121 8.211 -1.124 7.28 C-1.123 6.463 -1.122 5.645 -1.12 4.803 C-1.121 4.088 -1.122 3.374 -1.123 2.638 C-1 1 -1 1 0 0 Z " fill="#fabd2f" transform="translate(551,1)"/>
<path d="M0 0 C4.62 0 9.24 0 14 0 C14 32.34 14 64.68 14 98 C9.05 98 4.1 98 -1 98 C-1.023 85.37 -1.041 72.74 -1.052 60.11 C-1.057 54.246 -1.064 48.382 -1.075 42.518 C-1.086 36.864 -1.092 31.21 -1.095 25.557 C-1.097 23.394 -1.1 21.232 -1.106 19.07 C-1.113 16.052 -1.114 13.035 -1.114 10.018 C-1.117 9.114 -1.121 8.211 -1.124 7.28 C-1.123 6.463 -1.122 5.645 -1.12 4.803 C-1.121 4.088 -1.122 3.374 -1.123 2.638 C-1 1 -1 1 0 0 Z " fill="#fabd2f" transform="translate(590,1)"/>
<path d="M0 0 C0.461 -0.01 0.461 -0.01 2.793 -0.062 C9.343 -0.099 16.18 0.355 21.59 4.455 C28.614 11.857 27.312 23.552 27.301 33.031 C27.305 34.454 27.309 35.877 27.314 37.3 C27.321 40.269 27.321 43.237 27.316 46.206 C27.31 49.988 27.327 53.77 27.35 57.552 C27.365 60.486 27.366 63.421 27.363 66.355 C27.363 67.748 27.368 69.142 27.378 70.536 C27.492 88.324 27.492 88.324 22.519 93.915 C18.101 97.965 14.039 98.378 8.141 98.348 C7.026 98.344 5.911 98.341 4.762 98.338 C3.591 98.33 2.421 98.321 1.25 98.312 C0.064 98.307 -1.122 98.303 -2.309 98.299 C-5.206 98.287 -8.103 98.271 -11 98.25 C-11.023 85.62 -11.041 72.99 -11.052 60.36 C-11.057 54.496 -11.064 48.632 -11.075 42.768 C-11.086 37.114 -11.092 31.46 -11.095 25.807 C-11.097 23.644 -11.1 21.482 -11.106 19.32 C-11.113 16.302 -11.114 13.285 -11.114 10.268 C-11.117 9.364 -11.121 8.461 -11.124 7.53 C-11.123 6.713 -11.122 5.895 -11.12 5.053 C-11.121 4.338 -11.122 3.624 -11.123 2.888 C-10.778 -1.709 -3.415 0.018 0 0 Z M4 13.25 C4 37.34 4 61.43 4 86.25 C10 86.25 10 86.25 11.361 85.167 C12.311 82.318 12.261 79.543 12.227 76.575 C12.227 75.902 12.228 75.229 12.228 74.535 C12.227 72.311 12.211 70.087 12.195 67.863 C12.192 66.321 12.189 64.778 12.187 63.235 C12.179 59.176 12.159 55.117 12.137 51.058 C12.117 46.916 12.108 42.773 12.098 38.631 C12.076 30.504 12.042 22.377 12 14.25 C10 13.25 10 13.25 4 13.25 Z " fill="#fabd2f" transform="translate(624,0.75)"/>
<path d="M0 0 C0.825 0.165 0.825 0.165 5 1 C5.33 4.63 5.66 8.26 6 12 C6.144 10.391 6.289 8.782 6.438 7.125 C6.875 2.25 6.875 2.25 8 0 C9.32 0 10.64 0 12 0 C11.739 3.543 11.473 7.085 11.2 10.626 C11.109 11.832 11.018 13.038 10.93 14.243 C10.803 15.974 10.669 17.704 10.535 19.434 C10.457 20.476 10.378 21.518 10.297 22.592 C10 25 10 25 9 26 C6 26.125 6 26.125 3 26 C1.259 24.259 1.644 21.809 1.465 19.434 C1.378 18.309 1.291 17.184 1.201 16.025 C1.113 14.829 1.025 13.633 0.938 12.438 C0.846 11.238 0.754 10.038 0.662 8.838 C0.437 5.892 0.217 2.946 0 0 Z " fill="#fabd2f" transform="translate(666,65)"/>
<path d="M0 0 C0.99 0 1.98 0 3 0 C3 8.58 3 17.16 3 26 C1.68 25.67 0.36 25.34 -1 25 C-1.029 21.021 -1.047 17.042 -1.062 13.062 C-1.071 11.926 -1.079 10.79 -1.088 9.619 C-1.091 8.54 -1.094 7.46 -1.098 6.348 C-1.103 5.347 -1.108 4.347 -1.114 3.317 C-1 1 -1 1 0 0 Z " fill="#fabd2f" transform="translate(692,65)"/>
<path d="M0 0 C2.5 0.25 2.5 0.25 4.5 2.25 C4.727 4.129 4.727 4.129 4.695 6.383 C4.692 6.786 4.692 6.786 4.676 8.824 C4.659 9.666 4.642 10.508 4.625 11.375 C4.616 12.224 4.607 13.074 4.598 13.949 C4.574 16.05 4.541 18.15 4.5 20.25 C2.52 20.91 0.54 21.57 -1.5 22.25 C-3.337 20.691 -4.393 19.785 -4.872 17.381 C-4.869 16.697 -4.866 16.013 -4.863 15.309 C-4.863 14.56 -4.862 13.812 -4.861 13.041 C-4.845 12.264 -4.829 11.488 -4.812 10.688 C-4.816 9.907 -4.819 9.126 -4.822 8.322 C-4.748 0.475 -4.748 0.475 0 0 Z M-0.5 3.25 C-0.5 8.2 -0.5 13.15 -0.5 18.25 C0.16 17.92 0.82 17.59 1.5 17.25 C1.17 12.63 0.84 8.01 0.5 3.25 C0.17 3.25 -0.16 3.25 -0.5 3.25 Z " fill="#fabd2f" transform="translate(684.5,69.75)"/>
<path d="M0 0 C1.32 0 2.64 0 4 0 C4 1.32 4 2.64 4 4 C2.68 4 1.36 4 0 4 C0 2.68 0 1.36 0 0 Z " fill="#fabd2f" transform="translate(698,87)"/>
<path d="M0 0 C0.932 -0.003 1.865 -0.005 2.825 -0.008 C3.863 -0.005 4.902 -0.003 5.971 -0 C6.52 -0.001 6.52 -0.001 9.295 -0.005 C12.365 -0.009 15.436 -0.006 18.507 -0.003 C21.838 -0.001 25.168 -0.004 28.499 -0.006 C34.345 -0.01 40.192 -0.01 46.038 -0.007 C54.731 -0.004 63.425 -0.005 72.118 -0.009 C87.641 -0.014 103.163 -0.013 118.686 -0.01 C132.27 -0.008 145.854 -0.007 159.438 -0.008 C160.337 -0.009 161.237 -0.009 162.163 -0.009 C165.815 -0.009 169.466 -0.009 173.117 -0.01 C207.397 -0.013 241.677 -0.01 275.957 -0.005 C306.442 0 336.927 -0 367.412 -0.005 C401.628 -0.01 435.844 -0.013 470.06 -0.009 C473.704 -0.009 477.349 -0.009 480.993 -0.008 C481.891 -0.008 482.788 -0.008 483.713 -0.008 C497.291 -0.007 510.87 -0.008 524.448 -0.011 C539.881 -0.014 555.313 -0.013 570.746 -0.008 C579.393 -0.005 588.04 -0.005 596.687 -0.008 C602.452 -0.011 608.217 -0.009 613.982 -0.005 C617.274 -0.002 620.566 -0.002 623.858 -0.005 C627.392 -0.009 630.926 -0.005 634.46 -0 C635.498 -0.003 636.536 -0.005 637.606 -0.008 C638.538 -0.005 639.471 -0.003 640.431 0 C641.241 0 642.05 0 642.884 0 C644.716 0.125 644.716 0.125 645.716 1.125 C645.716 14.985 645.716 28.845 645.716 43.125 C430.886 43.125 216.056 43.125 -5.284 43.125 C-5.284 0 -5.284 0 0 0 Z " fill="#fabd2f" transform="translate(5.284454822540283,111.8746508359909)"/>

    </g>
  </g>
</svg>
